<mxfile host="app.diagrams.net" modified="2025-01-15T00:00:00.000Z" agent="5.0" version="24.0.0" etag="draw.io" type="device">
  <diagram name="MVC Pattern" id="mvc-pattern">
    <mxGraphModel dx="1434" dy="844" grid="1" gridSize="10" guides="1" tooltips="1" connect="1" arrows="1" fold="1" page="1" pageScale="1" pageWidth="1169" pageHeight="827" math="0" shadow="0">
      <root>
        <mxCell id="0" />
        <mxCell id="1" parent="0" />
        
        <!-- Title -->
        <mxCell id="title" value="MVC Pattern in SPA Management System" style="text;html=1;strokeColor=none;fillColor=none;align=center;verticalAlign=middle;whiteSpace=wrap;rounded=0;fontSize=20;fontStyle=1" vertex="1" parent="1">
          <mxGeometry x="334.5" y="40" width="500" height="40" as="geometry" />
        </mxCell>
        
        <!-- User -->
        <mxCell id="user" value="USER" style="shape=umlActor;verticalLabelPosition=bottom;verticalAlign=top;html=1;outlineConnect=0;fillColor=#dae8fc;strokeColor=#6c8ebf;" vertex="1" parent="1">
          <mxGeometry x="554.5" y="120" width="60" height="100" as="geometry" />
        </mxCell>
        
        <!-- User Label -->
        <mxCell id="user-label" value="(Customer, Therapist, Cashier, Monitor)" style="text;html=1;strokeColor=none;fillColor=none;align=center;verticalAlign=middle;whiteSpace=wrap;rounded=0;fontSize=11;fontStyle=2" vertex="1" parent="1">
          <mxGeometry x="484.5" y="230" width="200" height="20" as="geometry" />
        </mxCell>
        
        <!-- Arrow User to View -->
        <mxCell id="arrow-user-view" value="1. Interacts with" style="endArrow=classic;html=1;rounded=0;exitX=0.5;exitY=1;exitDx=0;exitDy=0;exitPerimeter=0;entryX=0.5;entryY=0;entryDx=0;entryDy=0;strokeWidth=2;strokeColor=#666666;fontSize=12;" edge="1" parent="1" source="user" target="view-box">
          <mxGeometry width="160" relative="1" as="geometry">
            <mxPoint x="584.5" y="240" as="sourcePoint" />
            <mxPoint x="584.5" y="280" as="targetPoint" />
          </mxGeometry>
        </mxCell>
        
        <!-- VIEW -->
        <mxCell id="view-box" value="" style="rounded=1;whiteSpace=wrap;html=1;fillColor=#e1d5e7;strokeColor=#9673a6;strokeWidth=3;" vertex="1" parent="1">
          <mxGeometry x="444.5" y="280" width="280" height="140" as="geometry" />
        </mxCell>
        
        <mxCell id="view-title" value="VIEW (User Interface)" style="text;html=1;strokeColor=none;fillColor=none;align=center;verticalAlign=middle;whiteSpace=wrap;rounded=0;fontSize=16;fontStyle=1" vertex="1" parent="1">
          <mxGeometry x="484.5" y="290" width="200" height="30" as="geometry" />
        </mxCell>
        
        <mxCell id="view-content" value="• Customer Interface&#xa;• Therapist Dashboard&#xa;• Cashier Screen&#xa;• Monitor Dashboard&#xa;• HTML Templates&#xa;• Real-time Updates" style="text;html=1;strokeColor=none;fillColor=none;align=left;verticalAlign=middle;whiteSpace=wrap;rounded=0;fontSize=11;" vertex="1" parent="1">
          <mxGeometry x="464.5" y="325" width="240" height="85" as="geometry" />
        </mxCell>
        
        <!-- Arrow View to Controller -->
        <mxCell id="arrow-view-controller-1" value="2. Sends user actions" style="endArrow=classic;html=1;rounded=0;exitX=0;exitY=0.5;exitDx=0;exitDy=0;entryX=0.5;entryY=0;entryDx=0;entryDy=0;strokeWidth=2;strokeColor=#d79b00;fontSize=12;" edge="1" parent="1" source="view-box" target="controller-box">
          <mxGeometry x="-0.2" width="160" relative="1" as="geometry">
            <mxPoint x="444.5" y="350" as="sourcePoint" />
            <mxPoint x="284.5" y="480" as="targetPoint" />
            <Array as="points">
              <mxPoint x="284.5" y="350" />
            </Array>
            <mxPoint as="offset" />
          </mxGeometry>
        </mxCell>
        
        <!-- Arrow Controller to View -->
        <mxCell id="arrow-controller-view" value="6. Updates display" style="endArrow=classic;html=1;rounded=0;exitX=1;exitY=0.25;exitDx=0;exitDy=0;entryX=0;entryY=0.75;entryDx=0;entryDy=0;strokeWidth=2;strokeColor=#82b366;fontSize=12;dashed=1;" edge="1" parent="1" source="controller-box" target="view-box">
          <mxGeometry width="160" relative="1" as="geometry">
            <mxPoint x="384.5" y="520" as="sourcePoint" />
            <mxPoint x="444.5" y="385" as="targetPoint" />
            <Array as="points">
              <mxPoint x="414.5" y="518" />
              <mxPoint x="414.5" y="385" />
            </Array>
          </mxGeometry>
        </mxCell>
        
        <!-- CONTROLLER -->
        <mxCell id="controller-box" value="" style="rounded=1;whiteSpace=wrap;html=1;fillColor=#ffe6cc;strokeColor=#d79b00;strokeWidth=3;" vertex="1" parent="1">
          <mxGeometry x="144.5" y="480" width="280" height="160" as="geometry" />
        </mxCell>
        
        <mxCell id="controller-title" value="CONTROLLER (Processing Logic)" style="text;html=1;strokeColor=none;fillColor=none;align=center;verticalAlign=middle;whiteSpace=wrap;rounded=0;fontSize=16;fontStyle=1" vertex="1" parent="1">
          <mxGeometry x="164.5" y="490" width="240" height="30" as="geometry" />
        </mxCell>
        
        <mxCell id="controller-content" value="• Route Handlers&#xa;• Business Logic&#xa;• Request Validation&#xa;• Queue Management&#xa;• Payment Processing&#xa;• Authentication&#xa;• WebSocket Events" style="text;html=1;strokeColor=none;fillColor=none;align=left;verticalAlign=middle;whiteSpace=wrap;rounded=0;fontSize=11;" vertex="1" parent="1">
          <mxGeometry x="164.5" y="525" width="240" height="105" as="geometry" />
        </mxCell>
        
        <!-- Arrow Controller to Model -->
        <mxCell id="arrow-controller-model" value="3. Requests/Updates data" style="endArrow=classic;html=1;rounded=0;exitX=1;exitY=0.75;exitDx=0;exitDy=0;entryX=0.5;entryY=0;entryDx=0;entryDy=0;strokeWidth=2;strokeColor=#d79b00;fontSize=12;" edge="1" parent="1" source="controller-box" target="model-box">
          <mxGeometry x="0.2" width="160" relative="1" as="geometry">
            <mxPoint x="424.5" y="600" as="sourcePoint" />
            <mxPoint x="884.5" y="480" as="targetPoint" />
            <Array as="points">
              <mxPoint x="884.5" y="600" />
            </Array>
            <mxPoint as="offset" />
          </mxGeometry>
        </mxCell>
        
        <!-- Arrow Model to Controller -->
        <mxCell id="arrow-model-controller" value="5. Returns data" style="endArrow=classic;html=1;rounded=0;exitX=0;exitY=0.25;exitDx=0;exitDy=0;entryX=1;entryY=0.5;entryDx=0;entryDy=0;strokeWidth=2;strokeColor=#82b366;fontSize=12;dashed=1;" edge="1" parent="1" source="model-box" target="controller-box">
          <mxGeometry width="160" relative="1" as="geometry">
            <mxPoint x="744.5" y="518" as="sourcePoint" />
            <mxPoint x="424.5" y="560" as="targetPoint" />
            <Array as="points">
              <mxPoint x="454.5" y="518" />
              <mxPoint x="454.5" y="560" />
            </Array>
          </mxGeometry>
        </mxCell>
        
        <!-- MODEL -->
        <mxCell id="model-box" value="" style="rounded=1;whiteSpace=wrap;html=1;fillColor=#d5e8d4;strokeColor=#82b366;strokeWidth=3;" vertex="1" parent="1">
          <mxGeometry x="744.5" y="480" width="280" height="160" as="geometry" />
        </mxCell>
        
        <mxCell id="model-title" value="MODEL (Data)" style="text;html=1;strokeColor=none;fillColor=none;align=center;verticalAlign=middle;whiteSpace=wrap;rounded=0;fontSize=16;fontStyle=1" vertex="1" parent="1">
          <mxGeometry x="784.5" y="490" width="200" height="30" as="geometry" />
        </mxCell>
        
        <mxCell id="model-content" value="• Transaction Model&#xa;• Service Model&#xa;• User Model&#xa;• Payment Model&#xa;• Database Operations&#xa;• Data Validation&#xa;• Business Rules" style="text;html=1;strokeColor=none;fillColor=none;align=left;verticalAlign=middle;whiteSpace=wrap;rounded=0;fontSize=11;" vertex="1" parent="1">
          <mxGeometry x="764.5" y="525" width="240" height="105" as="geometry" />
        </mxCell>
        
        <!-- DATABASE -->
        <mxCell id="database" value="DATABASE" style="shape=cylinder3;whiteSpace=wrap;html=1;boundedLbl=1;backgroundOutline=1;size=15;fillColor=#f5f5f5;strokeColor=#666666;strokeWidth=2;fontSize=14;fontStyle=1" vertex="1" parent="1">
          <mxGeometry x="814.5" y="680" width="140" height="80" as="geometry" />
        </mxCell>
        
        <!-- Arrow Model to Database -->
        <mxCell id="arrow-model-db" value="4. Queries/Saves" style="endArrow=classic;startArrow=classic;html=1;rounded=0;exitX=0.5;exitY=1;exitDx=0;exitDy=0;entryX=0.5;entryY=0;entryDx=0;entryDy=0;entryPerimeter=0;strokeWidth=2;strokeColor=#666666;fontSize=12;" edge="1" parent="1" source="model-box" target="database">
          <mxGeometry width="160" relative="1" as="geometry">
            <mxPoint x="884.5" y="640" as="sourcePoint" />
            <mxPoint x="884.5" y="680" as="targetPoint" />
          </mxGeometry>
        </mxCell>
        
        <!-- Flow Description -->
        <mxCell id="flow-title" value="Data Flow:" style="text;html=1;strokeColor=none;fillColor=none;align=left;verticalAlign=middle;whiteSpace=wrap;rounded=0;fontSize=14;fontStyle=1" vertex="1" parent="1">
          <mxGeometry x="144.5" y="680" width="100" height="30" as="geometry" />
        </mxCell>
        
        <mxCell id="flow-description" value="1. User interacts with the View (clicks, types, selects)&#xa;2. View sends user actions to the Controller&#xa;3. Controller processes the request and updates the Model&#xa;4. Model queries or saves data to the Database&#xa;5. Model returns data to the Controller&#xa;6. Controller updates the View with new data&#xa;7. User sees the updated interface" style="text;html=1;strokeColor=none;fillColor=none;align=left;verticalAlign=top;whiteSpace=wrap;rounded=0;fontSize=11;" vertex="1" parent="1">
          <mxGeometry x="144.5" y="710" width="400" height="100" as="geometry" />
        </mxCell>
        
        <!-- Legend -->
        <mxCell id="legend-title" value="Legend:" style="text;html=1;strokeColor=none;fillColor=none;align=left;verticalAlign=middle;whiteSpace=wrap;rounded=0;fontSize=12;fontStyle=1" vertex="1" parent="1">
          <mxGeometry x="584.5" y="680" width="60" height="20" as="geometry" />
        </mxCell>
        
        <mxCell id="legend-request" value="Request/Action" style="endArrow=classic;html=1;rounded=0;strokeWidth=2;strokeColor=#d79b00;fontSize=10;" edge="1" parent="1">
          <mxGeometry width="50" height="50" relative="1" as="geometry">
            <mxPoint x="584.5" y="720" as="sourcePoint" />
            <mxPoint x="664.5" y="720" as="targetPoint" />
          </mxGeometry>
        </mxCell>
        
        <mxCell id="legend-response" value="Response/Update" style="endArrow=classic;html=1;rounded=0;strokeWidth=2;strokeColor=#82b366;fontSize=10;dashed=1;" edge="1" parent="1">
          <mxGeometry width="50" height="50" relative="1" as="geometry">
            <mxPoint x="584.5" y="750" as="sourcePoint" />
            <mxPoint x="664.5" y="750" as="targetPoint" />
          </mxGeometry>
        </mxCell>
        
        <mxCell id="legend-data" value="Data Flow" style="endArrow=classic;startArrow=classic;html=1;rounded=0;strokeWidth=2;strokeColor=#666666;fontSize=10;" edge="1" parent="1">
          <mxGeometry width="50" height="50" relative="1" as="geometry">
            <mxPoint x="584.5" y="780" as="sourcePoint" />
            <mxPoint x="664.5" y="780" as="targetPoint" />
          </mxGeometry>
        </mxCell>
        
      </root>
    </mxGraphModel>
  </diagram>
</mxfile>
